<svg xmlns="http://www.w3.org/2000/svg" viewBox="0 0 900 600">
  <rect width="900" height="600" fill="#fe0000"/>
  <rect width="450" height="300" fill="#000095"/>
  <g transform="translate(225,150)" fill="#ffffff">
    <circle r="30"/>
    <circle r="37.5" fill="none" stroke="#000095" stroke-width="7.5"/>
    <g id="rays">
      <polygon points="0,-112.5 11.646,-43.467 -11.646,-43.467"/>
      <polygon points="0,-112.5 11.646,-43.467 -11.646,-43.467" transform="rotate(30)"/>
      <polygon points="0,-112.5 11.646,-43.467 -11.646,-43.467" transform="rotate(60)"/>
      <polygon points="0,-112.5 11.646,-43.467 -11.646,-43.467" transform="rotate(90)"/>
      <polygon points="0,-112.5 11.646,-43.467 -11.646,-43.467" transform="rotate(120)"/>
      <polygon points="0,-112.5 11.646,-43.467 -11.646,-43.467" transform="rotate(150)"/>
      <polygon points="0,-112.5 11.646,-43.467 -11.646,-43.467" transform="rotate(180)"/>
      <polygon points="0,-112.5 11.646,-43.467 -11.646,-43.467" transform="rotate(210)"/>
      <polygon points="0,-112.5 11.646,-43.467 -11.646,-43.467" transform="rotate(240)"/>
      <polygon points="0,-112.5 11.646,-43.467 -11.646,-43.467" transform="rotate(270)"/>
      <polygon points="0,-112.5 11.646,-43.467 -11.646,-43.467" transform="rotate(300)"/>
      <polygon points="0,-112.5 11.646,-43.467 -11.646,-43.467" transform="rotate(330)"/>
    </g>
  </g>
</svg>
